<?xml version="1.0" encoding="UTF-8" standalone="no"?>
<!-- Created with Inkscape (http://www.inkscape.org/) -->

<svg
        width="500"
        height="500"
        viewBox="0 0 132.29166 132.29167"
        version="1.1"
        id="svg8"
        sodipodi:docname="gamipress-bot-logo.svg"
        inkscape:version="1.4.3 (0d15f75, 2025-12-25)"
        xmlns:inkscape="http://www.inkscape.org/namespaces/inkscape"
        xmlns:sodipodi="http://sodipodi.sourceforge.net/DTD/sodipodi-0.dtd"
        xmlns="http://www.w3.org/2000/svg"
        xmlns:svg="http://www.w3.org/2000/svg">
  <g
          inkscape:label="Capa 1"
          inkscape:groupmode="layer"
          id="layer1"
          transform="translate(0,0)">
    <g
            id="g1274"
            transform="translate(0,0)">
      <g
              id="g1156-6"
              transform="translate(0,0)">
        <g
                id="g1084-9-8-4-5"
                transform="translate(53.8,61)"
                fill="#4cc7ee">
          <path d="M12,21L15.6,16.2C14.6,15.45 13.35,15 12,15C10.65,15 9.4,15.45 8.4,16.2L12,21" opacity="0">
            <animate id="spinner_jbAr" begin="0;spinner_8ff3.end+0.2s" attributeName="opacity" calcMode="discrete" dur="0.25s" values="0;1" fill="freeze"/>
            <animate id="spinner_8ff3" begin="spinner_aTlH.end+0.5s" attributeName="opacity" dur="0.001s" values="1;0" fill="freeze"/>
          </path>
          <path d="M12,9C9.3,9 6.81,9.89 4.8,11.4L6.6,13.8C8.1,12.67 9.97,12 12,12C14.03,12 15.9,12.67 17.4,13.8L19.2,11.4C17.19,9.89 14.7,9 12,9Z" opacity="0">
            <animate id="spinner_dof4" begin="spinner_jbAr.end" attributeName="opacity" calcMode="discrete" dur="0.25s" values="0;1" fill="freeze"/>
            <animate begin="spinner_aTlH.end+0.5s" attributeName="opacity" dur="0.001s" values="1;0" fill="freeze"/>
          </path>
          <path d="M12,3C7.95,3 4.21,4.34 1.2,6.6L3,9C5.5,7.12 8.62,6 12,6C15.38,6 18.5,7.12 21,9L22.8,6.6C19.79,4.34 16.05,3 12,3" opacity="0">
            <animate id="spinner_aTlH" begin="spinner_dof4.end" attributeName="opacity" calcMode="discrete" dur="0.25s" values="0;1" fill="freeze"/>
            <animate begin="spinner_aTlH.end+0.5s" attributeName="opacity" dur="0.001s" values="1;0" fill="freeze"/>
        </path>
        </g>
      </g>
    </g>
  </g>
</svg>
